<svg width="88" height="87" viewBox="0 0 88 87" fill="none" xmlns="http://www.w3.org/2000/svg">
<g clip-path="url(#clip0_427_1148)">
<path d="M41.2809 85.7766C41.2809 85.7766 68.0605 51.3844 87.4996 40.7812C78.7996 23.7891 35.5715 6.79688 35.5715 6.79688L8.24805 42.4125L34.8918 85.5047C36.3871 87.4078 39.2418 87.5437 41.2809 85.7766Z" fill="#94989B"/>
<path d="M35.8438 78.7078C35.8438 78.7078 87.9079 42.4125 81.3829 21.4781C66.8376 22.8375 38.9704 2.99062 36.9313 0C28.7751 11.9625 11.6469 21.0703 3.8985 31.4016C0.771936 35.6156 -0.859314 38.6062 2.26725 43.3641L35.0282 85.3687C33.3969 83.4656 33.9407 80.475 35.8438 78.7078Z" fill="#D0D0D0"/>
<path d="M64.7988 44.043L26.1926 13.8648L27.2801 12.9133L66.1582 42.8195L64.7988 44.043ZM24.8332 42.4117L10.9676 27.8664C17.6285 20.2539 23.066 16.7195 23.066 16.7195L38.8348 29.9055L24.8332 42.4117ZM34.077 71.5023L4.30664 35.0711C5.12227 31.8086 7.84102 30.3133 7.84102 30.3133L39.5145 66.6086L34.077 71.5023ZM42.3691 32.8961L37.6113 37.1102L54.8754 52.8789L60.3129 47.9852L42.3691 32.8961ZM32.8535 41.4602L28.0957 45.6742L43.8645 62.6664L49.4379 57.7727L32.8535 41.4602ZM38.9707 5.98047L40.466 6.93203L38.1551 13.3211L43.3207 8.69922L44.816 9.65078L37.3395 16.3117L35.8441 15.2242L38.1551 8.69922L33.1254 13.1852L31.902 12.2336L38.9707 5.98047ZM50.9332 15.632L46.5832 12.9133L44.952 14.4086L48.8941 16.9914L47.5348 18.2148L43.7285 15.632L41.8254 17.3992L46.1754 20.5258L44.816 21.7492L39.1066 17.5352L46.5832 10.8742L52.5645 14.6805L50.9332 15.632ZM55.1473 16.0398L51.7488 20.9336L50.6613 22.293L52.1566 21.3414L57.866 17.807L59.9051 19.1664L56.2348 24.1961L55.1473 25.5555L56.7785 24.6039L63.0316 21.0695L65.2066 22.4289L53.9238 28.2742L52.1566 26.9148L55.9629 21.7492L57.1863 20.118L55.2832 21.3414L49.4379 24.8758L47.8066 23.6523L53.3801 14.8164L55.1473 16.0398ZM61.8082 29.6336C61.5363 30.0414 61.2645 30.4492 61.2645 30.7211C61.2645 31.2648 61.6723 31.9445 62.4879 32.4883C63.0316 32.8961 63.4395 33.168 63.9832 33.3039C64.7988 33.5758 65.4785 33.4398 66.0223 33.032C66.2941 32.7602 66.4301 32.4883 66.2941 32.0805C66.1582 31.6727 65.7504 31.2648 65.2066 30.7211L64.2551 29.7695C63.3035 28.818 62.8957 28.1383 62.6238 27.5945C62.352 26.7789 62.6238 25.9633 63.4395 25.1477C64.2551 24.468 65.2066 24.0602 66.4301 24.0602C67.6535 24.0602 68.877 24.468 70.3723 25.2836C71.5957 25.9633 72.2754 26.9148 72.6832 27.8664C73.091 28.818 72.6832 29.7695 71.8676 30.7211L69.5566 29.2258C70.1004 28.682 70.1004 28.1383 69.8285 27.5945C69.5566 27.1867 69.2848 26.9148 68.741 26.507C68.1973 26.0992 67.5176 25.9633 66.9738 25.8273C66.4301 25.8273 66.0223 25.9633 65.6145 26.2352C65.3426 26.507 65.2066 26.7789 65.4785 27.1867C65.6145 27.4586 65.8863 27.8664 66.566 28.4102L68.0613 30.0414C68.741 30.7211 69.1488 31.4008 69.2848 31.9445C69.5566 32.7602 69.2848 33.5758 68.4691 34.2555C67.6535 35.0711 66.566 35.343 65.2066 35.343C63.8473 35.343 62.6238 34.7992 61.2645 33.7117C59.9051 32.7602 59.0895 31.6727 58.9535 30.7211C58.6816 29.7695 59.0895 28.818 60.041 28.0023L61.8082 29.6336Z" fill="#94989B"/>
</g>
<defs>
<clipPath id="clip0_427_1148">
<rect width="87" height="87" fill="white" transform="translate(0.5)"/>
</clipPath>
</defs>
</svg>
